<svg width="22" height="22" viewBox="0 0 22 22" fill="none" xmlns="http://www.w3.org/2000/svg">
<mask id="path-1-inside-1_43_6746" fill="white">
<path d="M16.79 21.75H5.21C2.47 21.75 0.25 19.52 0.25 16.78V9.36997C0.25 8.00997 1.09 6.29997 2.17 5.45997L7.56 1.25997C9.18 -2.5928e-05 11.77 -0.060026 13.45 1.11997L19.63 5.44997C20.82 6.27997 21.75 8.05997 21.75 9.50997V16.79C21.75 19.52 19.53 21.75 16.79 21.75ZM8.48 2.43997L3.09 6.63997C2.38 7.19997 1.75 8.46997 1.75 9.36997V16.78C1.75 18.69 3.3 20.25 5.21 20.25H16.79C18.7 20.25 20.25 18.7 20.25 16.79V9.50997C20.25 8.54997 19.56 7.21997 18.77 6.67997L12.59 2.34997C11.45 1.54997 9.57 1.58997 8.48 2.43997Z"/>
</mask>
<path d="M16.79 21.75H5.21C2.47 21.75 0.25 19.52 0.25 16.78V9.36997C0.25 8.00997 1.09 6.29997 2.17 5.45997L7.56 1.25997C9.18 -2.5928e-05 11.77 -0.060026 13.45 1.11997L19.63 5.44997C20.82 6.27997 21.75 8.05997 21.75 9.50997V16.79C21.75 19.52 19.53 21.75 16.79 21.75ZM8.48 2.43997L3.09 6.63997C2.38 7.19997 1.75 8.46997 1.75 9.36997V16.78C1.75 18.69 3.3 20.25 5.21 20.25H16.79C18.7 20.25 20.25 18.7 20.25 16.79V9.50997C20.25 8.54997 19.56 7.21997 18.77 6.67997L12.59 2.34997C11.45 1.54997 9.57 1.58997 8.48 2.43997Z" fill="#707B81"/>
<path d="M2.17 5.45997L3.39788 7.03868L3.3993 7.03757L2.17 5.45997ZM7.56 1.25997L6.33212 -0.318731L6.3307 -0.317627L7.56 1.25997ZM13.45 1.11997L12.3005 2.75661L12.3024 2.75794L13.45 1.11997ZM19.63 5.44997L18.4824 7.08794L18.4859 7.09038L19.63 5.44997ZM8.48 2.43997L9.7093 4.01757L9.70988 4.01712L8.48 2.43997ZM3.09 6.63997L1.86068 5.06235L1.85143 5.06964L3.09 6.63997ZM18.77 6.67997L17.6224 8.31794L17.6318 8.32458L17.6414 8.3311L18.77 6.67997ZM12.59 2.34997L11.4411 3.98709L11.4424 3.98794L12.59 2.34997ZM16.79 19.75H5.21V23.75H16.79V19.75ZM5.21 19.75C3.57981 19.75 2.25 18.4207 2.25 16.78H-1.75C-1.75 20.6193 1.36019 23.75 5.21 23.75V19.75ZM2.25 16.78V9.36997H-1.75V16.78H2.25ZM2.25 9.36997C2.25 9.06811 2.35387 8.60319 2.6002 8.1016C2.84621 7.60066 3.15277 7.22932 3.39788 7.03868L0.942119 3.88127C0.107233 4.53063 -0.546212 5.43429 -0.990197 6.33835C-1.43387 7.24176 -1.75 8.31184 -1.75 9.36997H2.25ZM3.3993 7.03757L8.7893 2.83757L6.3307 -0.317627L0.940701 3.88237L3.3993 7.03757ZM8.78788 2.83868C9.71216 2.1198 11.3375 2.08022 12.3005 2.75661L14.5995 -0.516657C12.2025 -2.20028 8.64784 -2.11985 6.33212 -0.31873L8.78788 2.83868ZM12.3024 2.75794L18.4824 7.08794L20.7776 3.81201L14.5976 -0.517992L12.3024 2.75794ZM18.4859 7.09038C18.7572 7.27965 19.0935 7.65634 19.3635 8.17333C19.6335 8.69044 19.75 9.18067 19.75 9.50997H23.75C23.75 8.38928 23.4015 7.26451 22.909 6.32162C22.4165 5.37861 21.6928 4.45029 20.7741 3.80957L18.4859 7.09038ZM19.75 9.50997V16.79H23.75V9.50997H19.75ZM19.75 16.79C19.75 18.418 18.4228 19.75 16.79 19.75V23.75C20.6372 23.75 23.75 20.6219 23.75 16.79H19.75ZM7.2507 0.862374L1.8607 5.06237L4.3193 8.21757L9.7093 4.01757L7.2507 0.862374ZM1.85143 5.06964C1.1898 5.59149 0.689462 6.32395 0.359546 6.99383C0.0308573 7.66122 -0.25 8.5128 -0.25 9.36997H3.75C3.75 9.37244 3.74993 9.35589 3.75556 9.319C3.7611 9.28272 3.77102 9.23413 3.78755 9.17422C3.82121 9.05215 3.87509 8.90907 3.94795 8.76112C4.11054 8.431 4.2802 8.24846 4.32857 8.21031L1.85143 5.06964ZM-0.25 9.36997V16.78H3.75V9.36997H-0.25ZM-0.25 16.78C-0.25 19.787 2.18793 22.25 5.21 22.25V18.25C4.41207 18.25 3.75 17.5929 3.75 16.78H-0.25ZM5.21 22.25H16.79V18.25H5.21V22.25ZM16.79 22.25C19.8046 22.25 22.25 19.8045 22.25 16.79H18.25C18.25 17.5954 17.5954 18.25 16.79 18.25V22.25ZM22.25 16.79V9.50997H18.25V16.79H22.25ZM22.25 9.50997C22.25 8.60852 21.9457 7.71458 21.5795 7.01249C21.2142 6.31223 20.6523 5.544 19.8986 5.02885L17.6414 8.3311C17.6396 8.32987 17.6538 8.33951 17.6815 8.36591C17.7088 8.39192 17.7439 8.42905 17.7844 8.47869C17.8669 8.57992 17.9542 8.71146 18.033 8.86246C18.1117 9.01335 18.1705 9.16201 18.2076 9.29098C18.2462 9.42529 18.25 9.49905 18.25 9.50997H22.25ZM19.9176 5.04201L13.7376 0.712008L11.4424 3.98794L17.6224 8.31794L19.9176 5.04201ZM13.7389 0.712861C12.7515 0.0199961 11.5552 -0.246795 10.4729 -0.223305C9.39155 -0.199838 8.2048 0.118352 7.25012 0.862829L9.70988 4.01712C9.8452 3.9116 10.1434 3.78479 10.5596 3.77575C10.9748 3.76674 11.2885 3.87995 11.4411 3.98709L13.7389 0.712861Z" fill="#707B81" mask="url(#path-1-inside-1_43_6746)"/>
</svg>
